HIERARCHY
ROOT pelvis
{
	OFFSET 0.000000 0.000000 0.712444
	CHANNELS 6 Xposition Yposition Zposition Xrotation Yrotation Zrotation
	JOINT spine
	{
		OFFSET 0.000000 0.000000 0.000000
		CHANNELS 6 Xposition Yposition Zposition Xrotation Yrotation Zrotation
		JOINT spine.001
		{
			OFFSET 0.000000 -0.013285 0.253490
			CHANNELS 3 Xrotation Yrotation Zrotation
			JOINT neck
			{
				OFFSET 0.000000 0.030935 0.251946
				CHANNELS 6 Xposition Yposition Zposition Xrotation Yrotation Zrotation
				JOINT face
				{
					OFFSET 0.000000 0.003373 0.193254
					CHANNELS 6 Xposition Yposition Zposition Xrotation Yrotation Zrotation
					End Site
					{
						OFFSET 0.000000 -0.029365 -0.007386
					}
				}
			}
			JOINT shoulder.L
			{
				OFFSET 0.000000 0.030935 0.251946
				CHANNELS 6 Xposition Yposition Zposition Yrotation Xrotation Zrotation
				JOINT upper_arm.L
				{
					OFFSET 0.153480 0.000000 0.000000
					CHANNELS 6 Xposition Yposition Zposition Xrotation Yrotation Zrotation
					JOINT forearm.L
					{
						OFFSET 0.244461 0.000110 0.000915
						CHANNELS 6 Xposition Yposition Zposition Xrotation Yrotation Zrotation
						End Site
						{
							OFFSET 0.230673 -0.003925 -0.001262
						}
					}
				}
			}
			JOINT shoulder.R
			{
				OFFSET 0.000000 0.030935 0.251946
				CHANNELS 6 Xposition Yposition Zposition Yrotation Xrotation Zrotation
				JOINT upper_arm.R
				{
					OFFSET -0.153480 0.000000 0.000000
					CHANNELS 6 Xposition Yposition Zposition Xrotation Yrotation Zrotation
					JOINT forearm.R
					{
						OFFSET -0.246364 0.000110 0.000915
						CHANNELS 6 Xposition Yposition Zposition Xrotation Yrotation Zrotation
						End Site
						{
							OFFSET -0.233754 -0.003979 -0.001262
						}
					}
				}
			}
		}
	}
	JOINT pelvis.L
	{
		OFFSET 0.000000 0.000000 0.000000
		CHANNELS 6 Xposition Yposition Zposition Yrotation Xrotation Zrotation
		End Site
		{
			OFFSET 0.102775 0.000000 0.000000
		}
	}
	JOINT pelvis.R
	{
		OFFSET 0.000000 0.000000 0.000000
		CHANNELS 6 Xposition Yposition Zposition Yrotation Xrotation Zrotation
		End Site
		{
			OFFSET -0.102775 0.000000 0.000000
		}
	}
	JOINT thigh.L
	{
		OFFSET 0.102775 0.000000 0.000000
		CHANNELS 6 Xposition Yposition Zposition Xrotation Yrotation Zrotation
		JOINT shin.L
		{
			OFFSET 0.017753 0.000000 -0.338753
			CHANNELS 6 Xposition Yposition Zposition Xrotation Yrotation Zrotation
			JOINT foot.L
			{
				OFFSET 0.015777 0.000000 -0.301042
				CHANNELS 3 Xrotation Yrotation Zrotation
				End Site
				{
					OFFSET 0.014599 -0.148854 -0.062506
				}
			}
			JOINT heel.02.L
			{
				OFFSET 0.015777 0.000000 -0.301042
				CHANNELS 3 Xrotation Yrotation Zrotation
				End Site
				{
					OFFSET -0.069444 0.032924 -0.075509
				}
			}
		}
	}
	JOINT thigh.R
	{
		OFFSET -0.102775 0.000000 0.000000
		CHANNELS 6 Xposition Yposition Zposition Xrotation Yrotation Zrotation
		JOINT shin.R
		{
			OFFSET -0.017866 0.000000 -0.340896
			CHANNELS 6 Xposition Yposition Zposition Xrotation Yrotation Zrotation
			JOINT foot.R
			{
				OFFSET -0.016267 0.000000 -0.310402
				CHANNELS 3 Xrotation Yrotation Zrotation
				End Site
				{
					OFFSET -0.015831 -0.161416 -0.067781
				}
			}
			JOINT heel.02.R
			{
				OFFSET -0.016267 0.000000 -0.310402
				CHANNELS 3 Xrotation Yrotation Zrotation
				End Site
				{
					OFFSET 0.072525 0.032924 -0.064136
				}
			}
		}
	}
}
MOTION
Frames: 5
Frame Time: 0.041667
0.045487 0.026406 0.703152 -0.000000 0.000000 -0.119020 0.000000 0.000000 -0.000000 -9.390962 2.335249 0.315593 9.994713 0.275553 2.245014 0.000000 0.030935 0.251946 2.864196 -1.733441 2.742997 0.000000 0.003373 0.193254 5.828000 -0.000000 -0.000001 -0.000000 0.030935 0.251946 -1.604921 0.002760 0.197046 0.153480 0.000000 0.000000 54.001788 57.242132 -85.853272 0.244461 0.000110 0.000915 67.890578 50.706348 -108.238527 -0.000000 0.030935 0.251946 -1.551695 0.002580 0.190529 -0.153480 0.000000 0.000000 42.664599 -59.063234 68.976817 -0.246364 0.000110 0.000915 85.970389 -56.219594 118.763042 -0.000000 -0.000000 -0.000000 0.287000 -0.000000 0.000100 -0.000000 -0.000000 -0.000000 0.287033 -0.000000 0.000000 0.102773 -0.000000 -0.000515 -0.648548 6.502710 0.002861 0.017753 -0.000000 -0.338753 5.881960 2.343875 0.188300 -3.231955 -9.727990 20.202847 -1.281840 -19.969569 -9.392258 -0.102773 0.000000 0.000515 -2.025078 0.372378 0.112703 -0.017866 0.000000 -0.340896 11.469239 -0.758635 -0.527086 -12.287072 6.331572 -9.065500 -4.506316 24.938563 12.159603 
0.045282 0.026383 0.703096 -0.000000 0.000000 -0.105900 0.000000 0.000000 0.000000 -9.391663 2.326633 0.314443 9.994674 0.275868 2.247585 0.000000 0.030935 0.251946 4.080247 -1.565406 2.551006 -0.000000 0.003373 0.193255 6.490568 -0.000000 0.000001 0.000000 0.030935 0.251946 -1.571556 0.002645 0.192877 0.153480 0.000000 -0.000000 53.620584 57.329705 -85.279577 0.244461 0.000110 0.000915 69.013393 50.795809 -109.258349 0.000000 0.030935 0.251946 -1.518330 0.002470 0.186415 -0.153480 0.000000 -0.000000 42.141154 -59.881150 67.382835 -0.246364 0.000110 0.000915 88.081443 -56.797609 119.969172 0.000000 -0.000000 0.000000 0.287000 -0.000000 0.000071 0.000000 -0.000000 0.000000 0.286967 -0.000000 0.000000 0.102773 -0.000000 -0.000515 -0.654418 6.485664 0.002789 0.017753 -0.000000 -0.338753 5.892356 2.357701 0.187921 -3.219306 -9.725389 20.205812 -1.293648 -19.975723 -9.386240 -0.102773 0.000000 0.000515 -2.016554 0.329573 0.111478 -0.017866 0.000000 -0.340896 11.451852 -0.715373 -0.530610 -12.264211 6.337996 -9.085531 -4.503349 24.982938 12.205516 
0.045007 0.026437 0.703199 -0.000000 0.000000 -0.086237 -0.000000 0.000000 -0.000000 -9.444004 2.276618 0.308741 9.995403 0.256043 2.085895 0.000000 0.030935 0.251946 6.042194 -1.028290 2.346273 0.000000 0.003373 0.193254 7.423223 0.000000 -0.000001 0.000000 0.030935 0.251946 -1.450649 0.002255 0.178116 0.153480 -0.000000 0.000000 52.992832 57.611286 -84.170450 0.244461 0.000110 0.000915 70.521041 50.826897 -110.711178 -0.000000 0.030935 0.251946 -1.397423 0.002094 0.171565 -0.153480 0.000000 -0.000000 42.113314 -60.583327 66.606707 -0.246364 0.000110 0.000915 90.623291 -57.822305 121.073422 -0.000000 0.000000 -0.000000 0.298198 -0.000000 0.000009 -0.000000 0.000000 -0.000000 0.298165 -0.000000 0.000000 0.102773 -0.000000 -0.000535 -0.671283 6.481158 0.002834 0.017753 0.000000 -0.338753 5.906913 2.346151 0.188982 -3.132709 -9.712932 20.237412 -1.316883 -19.970930 -9.363558 -0.102773 0.000000 0.000535 -2.017374 0.252639 0.110172 -0.017866 -0.000000 -0.340896 11.432505 -0.633634 -0.537873 -12.157253 6.329858 -9.111671 -4.501452 25.007708 12.231475 
0.044664 0.026634 0.703319 -0.000000 0.000000 0.012948 0.000000 0.000000 0.000000 -9.534925 2.178914 0.297249 9.996685 0.214353 1.745973 0.000000 0.030935 0.251946 8.688854 -0.164898 2.508907 0.000000 0.003373 0.193254 8.536143 0.000000 0.000002 0.000000 0.030935 0.251946 -1.241016 0.001650 0.152350 0.153480 0.000000 0.000000 52.109176 58.259943 -82.311948 0.244461 0.000110 0.000915 70.177865 50.166056 -111.175768 0.000000 0.030935 0.251946 -1.187745 0.001511 0.145828 -0.153480 0.000000 -0.000000 43.017201 -60.924270 67.480090 -0.246364 0.000110 0.000915 91.245679 -58.662876 120.755286 -0.000000 0.000000 0.000000 0.319963 -0.000000 0.000028 -0.000000 0.000000 0.000000 0.319963 -0.000000 0.000000 0.102773 0.000000 -0.000574 -0.724282 6.481755 0.003062 0.017753 -0.000000 -0.338753 5.956946 2.318316 0.192034 -3.017415 -9.673488 20.231946 -1.331854 -19.979111 -9.356175 -0.102773 0.000000 0.000574 -2.023686 0.161619 0.108913 -0.017866 -0.000000 -0.340896 11.431589 -0.560163 -0.545167 -11.998848 6.340793 -9.191444 -4.512002 25.012960 12.224252 
0.044245 0.027056 0.703136 -0.000000 0.000000 0.285881 0.000000 0.000000 0.000000 -9.590272 2.094313 0.286735 9.997873 0.171732 1.398786 0.000000 0.030935 0.251946 11.636583 0.673899 2.911922 -0.000000 0.003373 0.193254 9.793866 0.000000 -0.000001 0.000000 0.030935 0.251946 -1.003847 0.001078 0.123251 0.153480 0.000000 -0.000000 50.919419 59.186512 -79.749541 0.244461 0.000110 0.000915 66.000015 48.244925 -109.389489 0.000000 0.030935 0.251946 -0.950622 0.000967 0.116707 -0.153480 -0.000000 0.000000 44.282746 -61.117004 68.979446 -0.246364 0.000110 0.000915 89.320993 -58.657842 119.126217 0.000000 0.000000 0.000000 0.348042 -0.000000 -0.000138 0.000000 0.000000 0.000000 0.348009 0.000000 0.000000 0.102773 0.000000 -0.000624 -0.847622 6.466258 0.003468 0.017753 0.000000 -0.338753 6.087364 2.291903 0.197651 -2.990989 -9.588214 20.071496 -1.319752 -20.032260 -9.400577 -0.102773 -0.000000 0.000624 -2.023682 0.106697 0.107947 -0.017866 0.000000 -0.340896 11.467268 -0.585815 -0.544310 -11.892279 6.429631 -9.390756 -4.564483 25.035609 12.185069 
